<svg xmlns="http://www.w3.org/2000/svg" xmlns:xlink="http://www.w3.org/1999/xlink" viewBox="0, 0, 400, 432"><path id="path0" d="M186.800 51.818 C 161.655 56.392,142.753 77.206,141.318 101.900 L 141.079 106.000 118.540 106.000 C 106.143 106.000,96.000 106.079,96.000 106.175 C 96.000 106.271,94.555 117.449,92.788 131.015 L 89.577 155.680 84.158 160.913 C 25.475 217.584,64.869 315.584,146.400 315.752 C 204.964 315.873,247.780 260.201,232.962 203.200 C 228.480 185.958,219.903 171.987,205.737 158.855 L 202.438 155.797 199.219 131.073 C 197.449 117.475,196.000 106.271,196.000 106.175 C 196.000 106.079,185.825 106.000,173.389 106.000 L 150.778 106.000 151.014 103.300 C 154.718 61.019,207.153 45.599,232.295 79.397 C 239.077 88.514,240.793 95.092,241.085 113.100 L 241.295 126.000 225.047 126.000 C 216.111 126.000,208.800 126.148,208.800 126.328 C 208.800 126.509,209.515 132.085,210.389 138.719 L 211.979 150.782 215.056 153.691 C 221.824 160.089,229.702 170.432,234.106 178.701 C 235.073 180.517,235.944 181.922,236.042 181.824 C 236.140 181.726,238.476 181.452,241.232 181.214 C 273.005 178.478,303.024 200.996,309.598 232.497 C 320.864 286.479,264.332 329.021,215.495 303.311 L 211.679 301.302 208.739 303.714 C 204.889 306.874,197.001 312.087,193.100 314.049 C 189.353 315.935,189.368 315.780,192.685 318.223 C 245.983 357.475,322.010 327.732,334.351 262.800 C 340.317 231.411,329.817 200.904,305.317 178.443 L 302.434 175.800 299.217 151.074 C 297.448 137.474,296.000 126.269,296.000 126.174 C 296.000 126.078,285.830 126.000,273.400 126.000 L 250.800 126.000 250.800 113.252 C 250.800 99.262,250.513 96.421,248.407 89.600 C 240.419 63.723,213.180 47.018,186.800 51.818 M157.409 162.013 C 195.832 168.485,220.135 209.123,207.783 246.246 C 192.447 292.340,134.409 306.139,100.184 271.829 C 55.384 226.919,94.710 151.451,157.409 162.013 M179.541 185.500 C 160.705 205.382,152.255 235.770,157.834 263.564 C 158.927 269.006,161.825 278.400,162.412 278.400 C 165.548 278.400,178.570 270.938,182.515 266.880 L 183.955 265.400 183.168 262.600 C 177.897 243.834,182.276 222.072,194.457 206.501 L 196.412 204.002 195.155 201.501 C 192.337 195.896,186.680 188.394,182.991 185.371 C 180.955 183.703,181.254 183.692,179.541 185.500 "   style="fill:white;"/></svg>