<?xml version="1.0" encoding="UTF-8"?>
<!DOCTYPE svg PUBLIC "-//W3C//DTD SVG 1.1//EN" "http://www.w3.org/Graphics/SVG/1.1/DTD/svg11.dtd">
<!-- Created by: [DATA EXPUNGED] -->
<svg xmlns="http://www.w3.org/2000/svg" xml:space="preserve" width="22.808mm" height="11.785mm" version="1.1" style="shape-rendering:geometricPrecision; text-rendering:geometricPrecision; image-rendering:optimizeQuality; fill-rule:evenodd; clip-rule:evenodd"
viewBox="0 0 2281 1178"
 xmlns:xlink="http://www.w3.org/1999/xlink">
 <defs>
  <style type="text/css">
   <![CDATA[
    .fil0 {fill:#151515}
   ]]>
  </style>
 </defs>
 <g id="Layer_x0020_1">
  <g id="_279640448">
   <path class="fil0" d="M502 299l0 -228c0,-33 -7,-65 -65,-70l-390 -1c-53,3 -62,54 -23,94 25,26 50,49 77,75 89,85 240,249 313,314 33,28 75,9 84,-26 5,-18 4,-131 4,-158z"/>
   <path class="fil0" d="M604 1177l244 2 7 -740c60,55 547,729 572,739l242 0 4 -1176 -248 -2 -14 730 -64 -82c-24,-32 -47,-60 -70,-91 -123,-165 -313,-401 -423,-557l-249 1 -1 1176z"/>
   <path class="fil0" d="M1779 879l0 228c0,33 7,65 65,70l390 1c53,-3 61,-54 23,-93 -25,-27 -50,-50 -77,-76 -90,-85 -241,-249 -314,-313 -32,-29 -74,-10 -84,25 -4,18 -3,131 -3,158z"/>
  </g>
 </g>
</svg>
